<svg viewBox="0 0 1800 800" height="200" width="1800px" role="img" xmlns="http://www.w3.org/2000/svg" bannerText="Tech Stack" color="#948484" backgroundColor="#151619" bannerColor="#ffffff"><style>text {
            font-family: 'Space Grotesk',-apple-system,BlinkMacSystemFont,"Segoe UI","Noto Sans",Helvetica,Arial,sans-serif,"Apple Color Emoji","Segoe UI Emoji";
            user-select: none;
            }</style><style>
                @keyframes lifting {
                    0% {transform:translateY(0);}
                    20% {transform:translateY(-80px);}
                    40% {transform:translateY(-80px);}
                    80% {transform:translateY(0);}
                    100% {transform:translateY(0);}
                }
                #cubes&gt;use {
                    animation-name: lifting;
                    animation-iteration-count: infinite;
                    animation-timing-function: ease-in-out;
                    animation-duration: 10s;
                }
                .lifting-init-0 { animation-delay:-0s; }
.lifting-init-1 { animation-delay:-1s; }
.lifting-init-2 { animation-delay:-2s; }
.lifting-init-3 { animation-delay:-3s; }
.lifting-init-4 { animation-delay:-4s; }
.lifting-init-5 { animation-delay:-5s; }
.lifting-init-6 { animation-delay:-6s; }
.lifting-init-7 { animation-delay:-7s; }
.lifting-init-8 { animation-delay:-8s; }
.lifting-init-9 { animation-delay:-9s; }
            </style><defs><g id="cube-base" transform="translate(200,200)"><path d="M-150 150L-150 0L150 0L150 150" stroke="none" fill="#222222"></path><path d="M0 75L150 0L0 -75L-150 0Z" stroke="#000000" stroke-width="2" fill="#000000"></path><path d="M0 75 L0 225M150 0 L150 150M-150 0 L-150 150" stroke="#000000" stroke-width="2" fill="none"></path></g></defs><rect width="1800px" height="800px" fill="#000000"></rect><g id="cubes"><use href="#cube-base" x="-300" y="-300" class="lifting-init-0"></use><use href="#cube-base" x="0" y="-300" class="lifting-init-9"></use><use href="#cube-base" x="-150" y="-225" class="lifting-init-1"></use><use href="#cube-base" x="-300" y="-150" class="lifting-init-3"></use><use href="#cube-base" x="300" y="-300" class="lifting-init-8"></use><use href="#cube-base" x="150" y="-225" class="lifting-init-0"></use><use href="#cube-base" x="0" y="-150" class="lifting-init-2"></use><use href="#cube-base" x="-150" y="-75" class="lifting-init-4"></use><use href="#cube-base" x="-300" y="0" class="lifting-init-6"></use><use href="#cube-base" x="600" y="-300" class="lifting-init-7"></use><use href="#cube-base" x="450" y="-225" class="lifting-init-9"></use><use href="#cube-base" x="300" y="-150" class="lifting-init-1"></use><use href="#cube-base" x="150" y="-75" class="lifting-init-3"></use><use href="#cube-base" x="0" y="0" class="lifting-init-5"></use><use href="#cube-base" x="-150" y="75" class="lifting-init-7"></use><use href="#cube-base" x="-300" y="150" class="lifting-init-9"></use><use href="#cube-base" x="900" y="-300" class="lifting-init-6"></use><use href="#cube-base" x="750" y="-225" class="lifting-init-8"></use><use href="#cube-base" x="600" y="-150" class="lifting-init-0"></use><use href="#cube-base" x="450" y="-75" class="lifting-init-2"></use><use href="#cube-base" x="300" y="0" class="lifting-init-4"></use><use href="#cube-base" x="150" y="75" class="lifting-init-6"></use><use href="#cube-base" x="0" y="150" class="lifting-init-8"></use><use href="#cube-base" x="-150" y="225" class="lifting-init-0"></use><use href="#cube-base" x="-300" y="300" class="lifting-init-2"></use><use href="#cube-base" x="1200" y="-300" class="lifting-init-5"></use><use href="#cube-base" x="1050" y="-225" class="lifting-init-7"></use><use href="#cube-base" x="900" y="-150" class="lifting-init-9"></use><use href="#cube-base" x="750" y="-75" class="lifting-init-1"></use><use href="#cube-base" x="600" y="0" class="lifting-init-3"></use><use href="#cube-base" x="450" y="75" class="lifting-init-5"></use><use href="#cube-base" x="300" y="150" class="lifting-init-7"></use><use href="#cube-base" x="150" y="225" class="lifting-init-9"></use><use href="#cube-base" x="0" y="300" class="lifting-init-1"></use><use href="#cube-base" x="-150" y="375" class="lifting-init-3"></use><use href="#cube-base" x="-300" y="450" class="lifting-init-5"></use><use href="#cube-base" x="1500" y="-300" class="lifting-init-4"></use><use href="#cube-base" x="1350" y="-225" class="lifting-init-6"></use><use href="#cube-base" x="1200" y="-150" class="lifting-init-8"></use><use href="#cube-base" x="1050" y="-75" class="lifting-init-0"></use><use href="#cube-base" x="900" y="0" class="lifting-init-2"></use><use href="#cube-base" x="750" y="75" class="lifting-init-4"></use><use href="#cube-base" x="600" y="150" class="lifting-init-6"></use><use href="#cube-base" x="450" y="225" class="lifting-init-8"></use><use href="#cube-base" x="300" y="300" class="lifting-init-0"></use><use href="#cube-base" x="150" y="375" class="lifting-init-2"></use><use href="#cube-base" x="0" y="450" class="lifting-init-4"></use><use href="#cube-base" x="-150" y="525" class="lifting-init-6"></use><use href="#cube-base" x="-300" y="600" class="lifting-init-8"></use><use href="#cube-base" x="1800" y="-300" class="lifting-init-3"></use><use href="#cube-base" x="1650" y="-225" class="lifting-init-5"></use><use href="#cube-base" x="1500" y="-150" class="lifting-init-7"></use><use href="#cube-base" x="1350" y="-75" class="lifting-init-9"></use><use href="#cube-base" x="1200" y="0" class="lifting-init-1"></use><use href="#cube-base" x="1050" y="75" class="lifting-init-3"></use><use href="#cube-base" x="900" y="150" class="lifting-init-5"></use><use href="#cube-base" x="750" y="225" class="lifting-init-7"></use><use href="#cube-base" x="600" y="300" class="lifting-init-9"></use><use href="#cube-base" x="450" y="375" class="lifting-init-1"></use><use href="#cube-base" x="300" y="450" class="lifting-init-3"></use><use href="#cube-base" x="150" y="525" class="lifting-init-5"></use><use href="#cube-base" x="0" y="600" class="lifting-init-7"></use><use href="#cube-base" x="-150" y="675" class="lifting-init-9"></use><use href="#cube-base" x="-300" y="750" class="lifting-init-1"></use><use href="#cube-base" x="2100" y="-300" class="lifting-init-2"></use><use href="#cube-base" x="1950" y="-225" class="lifting-init-4"></use><use href="#cube-base" x="1800" y="-150" class="lifting-init-6"></use><use href="#cube-base" x="1650" y="-75" class="lifting-init-8"></use><use href="#cube-base" x="1500" y="0" class="lifting-init-0"></use><use href="#cube-base" x="1350" y="75" class="lifting-init-2"></use><use href="#cube-base" x="1200" y="150" class="lifting-init-4"></use><use href="#cube-base" x="1050" y="225" class="lifting-init-6"></use><use href="#cube-base" x="900" y="300" class="lifting-init-8"></use><use href="#cube-base" x="750" y="375" class="lifting-init-0"></use><use href="#cube-base" x="600" y="450" class="lifting-init-2"></use><use href="#cube-base" x="450" y="525" class="lifting-init-4"></use><use href="#cube-base" x="300" y="600" class="lifting-init-6"></use><use href="#cube-base" x="150" y="675" class="lifting-init-8"></use><use href="#cube-base" x="0" y="750" class="lifting-init-0"></use><use href="#cube-base" x="-150" y="825" class="lifting-init-2"></use><use href="#cube-base" x="-300" y="900" class="lifting-init-4"></use><use href="#cube-base" x="2100" y="-150" class="lifting-init-5"></use><use href="#cube-base" x="1950" y="-75" class="lifting-init-7"></use><use href="#cube-base" x="1800" y="0" class="lifting-init-9"></use><use href="#cube-base" x="1650" y="75" class="lifting-init-1"></use><use href="#cube-base" x="1500" y="150" class="lifting-init-3"></use><use href="#cube-base" x="1350" y="225" class="lifting-init-5"></use><use href="#cube-base" x="1200" y="300" class="lifting-init-7"></use><use href="#cube-base" x="1050" y="375" class="lifting-init-9"></use><use href="#cube-base" x="900" y="450" class="lifting-init-1"></use><use href="#cube-base" x="750" y="525" class="lifting-init-3"></use><use href="#cube-base" x="600" y="600" class="lifting-init-5"></use><use href="#cube-base" x="450" y="675" class="lifting-init-7"></use><use href="#cube-base" x="300" y="750" class="lifting-init-9"></use><use href="#cube-base" x="150" y="825" class="lifting-init-1"></use><use href="#cube-base" x="0" y="900" class="lifting-init-3"></use><use href="#cube-base" x="-150" y="975" class="lifting-init-5"></use><use href="#cube-base" x="-300" y="1050" class="lifting-init-7"></use><use href="#cube-base" x="2100" y="0" class="lifting-init-8"></use><use href="#cube-base" x="1950" y="75" class="lifting-init-0"></use><use href="#cube-base" x="1800" y="150" class="lifting-init-2"></use><use href="#cube-base" x="1650" y="225" class="lifting-init-4"></use><use href="#cube-base" x="1500" y="300" class="lifting-init-6"></use><use href="#cube-base" x="1350" y="375" class="lifting-init-8"></use><use href="#cube-base" x="1200" y="450" class="lifting-init-0"></use><use href="#cube-base" x="1050" y="525" class="lifting-init-2"></use><use href="#cube-base" x="900" y="600" class="lifting-init-4"></use><use href="#cube-base" x="750" y="675" class="lifting-init-6"></use><use href="#cube-base" x="600" y="750" class="lifting-init-8"></use><use href="#cube-base" x="450" y="825" class="lifting-init-0"></use><use href="#cube-base" x="300" y="900" class="lifting-init-2"></use><use href="#cube-base" x="150" y="975" class="lifting-init-4"></use><use href="#cube-base" x="0" y="1050" class="lifting-init-6"></use><use href="#cube-base" x="2100" y="150" class="lifting-init-1"></use><use href="#cube-base" x="1950" y="225" class="lifting-init-3"></use><use href="#cube-base" x="1800" y="300" class="lifting-init-5"></use><use href="#cube-base" x="1650" y="375" class="lifting-init-7"></use><use href="#cube-base" x="1500" y="450" class="lifting-init-9"></use><use href="#cube-base" x="1350" y="525" class="lifting-init-1"></use><use href="#cube-base" x="1200" y="600" class="lifting-init-3"></use><use href="#cube-base" x="1050" y="675" class="lifting-init-5"></use><use href="#cube-base" x="900" y="750" class="lifting-init-7"></use><use href="#cube-base" x="750" y="825" class="lifting-init-9"></use><use href="#cube-base" x="600" y="900" class="lifting-init-1"></use><use href="#cube-base" x="450" y="975" class="lifting-init-3"></use><use href="#cube-base" x="300" y="1050" class="lifting-init-5"></use><use href="#cube-base" x="2100" y="300" class="lifting-init-4"></use><use href="#cube-base" x="1950" y="375" class="lifting-init-6"></use><use href="#cube-base" x="1800" y="450" class="lifting-init-8"></use><use href="#cube-base" x="1650" y="525" class="lifting-init-0"></use><use href="#cube-base" x="1500" y="600" class="lifting-init-2"></use><use href="#cube-base" x="1350" y="675" class="lifting-init-4"></use><use href="#cube-base" x="1200" y="750" class="lifting-init-6"></use><use href="#cube-base" x="1050" y="825" class="lifting-init-8"></use><use href="#cube-base" x="900" y="900" class="lifting-init-0"></use><use href="#cube-base" x="750" y="975" class="lifting-init-2"></use><use href="#cube-base" x="600" y="1050" class="lifting-init-4"></use><use href="#cube-base" x="2100" y="450" class="lifting-init-7"></use><use href="#cube-base" x="1950" y="525" class="lifting-init-9"></use><use href="#cube-base" x="1800" y="600" class="lifting-init-1"></use><use href="#cube-base" x="1650" y="675" class="lifting-init-3"></use><use href="#cube-base" x="1500" y="750" class="lifting-init-5"></use><use href="#cube-base" x="1350" y="825" class="lifting-init-7"></use><use href="#cube-base" x="1200" y="900" class="lifting-init-9"></use><use href="#cube-base" x="1050" y="975" class="lifting-init-1"></use><use href="#cube-base" x="900" y="1050" class="lifting-init-3"></use><use href="#cube-base" x="2100" y="600" class="lifting-init-0"></use><use href="#cube-base" x="1950" y="675" class="lifting-init-2"></use><use href="#cube-base" x="1800" y="750" class="lifting-init-4"></use><use href="#cube-base" x="1650" y="825" class="lifting-init-6"></use><use href="#cube-base" x="1500" y="900" class="lifting-init-8"></use><use href="#cube-base" x="1350" y="975" class="lifting-init-0"></use><use href="#cube-base" x="1200" y="1050" class="lifting-init-2"></use><use href="#cube-base" x="2100" y="750" class="lifting-init-3"></use><use href="#cube-base" x="1950" y="825" class="lifting-init-5"></use><use href="#cube-base" x="1800" y="900" class="lifting-init-7"></use><use href="#cube-base" x="1650" y="975" class="lifting-init-9"></use><use href="#cube-base" x="1500" y="1050" class="lifting-init-1"></use><use href="#cube-base" x="2100" y="900" class="lifting-init-6"></use><use href="#cube-base" x="1950" y="975" class="lifting-init-8"></use><use href="#cube-base" x="1800" y="1050" class="lifting-init-0"></use><use href="#cube-base" x="2100" y="1050" class="lifting-init-9"></use></g></svg>